<mxfile host="app.diagrams.net" agent="Mozilla/5.0 (Macintosh; Intel Mac OS X 10_15_7) AppleWebKit/537.36 (KHTML, like Gecko) Chrome/134.0.0.0 Safari/537.36" version="26.1.3">
  <diagram name="Page-1" id="7zgc7x_wNUAopuk2HleP">
    <mxGraphModel dx="6577" dy="2912" grid="1" gridSize="10" guides="1" tooltips="1" connect="1" arrows="1" fold="1" page="1" pageScale="1" pageWidth="827" pageHeight="1169" math="0" shadow="0">
      <root>
        <mxCell id="0" />
        <mxCell id="1" parent="0" />
        <mxCell id="ka8Jxv8DOYRjdWOTi-CZ-1" value="&lt;font style=&quot;font-size: 25px;&quot;&gt;Matchemotor&lt;/font&gt;" style="rounded=0;whiteSpace=wrap;html=1;labelPosition=left;verticalLabelPosition=middle;align=right;verticalAlign=middle;textDirection=vertical-rl;textShadow=0;gradientColor=light-dark(#ffffff, #ededed);" vertex="1" parent="1">
          <mxGeometry x="-840" y="-280" width="1600" height="390" as="geometry" />
        </mxCell>
        <mxCell id="ka8Jxv8DOYRjdWOTi-CZ-2" value="&lt;font style=&quot;font-size: 25px;&quot;&gt;Leder med ferdig utprøvd medarbeider&lt;/font&gt;" style="rounded=0;whiteSpace=wrap;html=1;labelPosition=left;verticalLabelPosition=middle;align=right;verticalAlign=middle;textDirection=vertical-rl;fontSize=32;gradientColor=light-dark(#ffffff, #ededed);" vertex="1" parent="1">
          <mxGeometry x="-840" y="-670" width="1600" height="390" as="geometry" />
        </mxCell>
        <mxCell id="ka8Jxv8DOYRjdWOTi-CZ-3" value="&lt;font style=&quot;font-size: 25px;&quot;&gt;Leder med bemanningsbehov&lt;/font&gt;" style="rounded=0;whiteSpace=wrap;html=1;labelPosition=left;verticalLabelPosition=middle;align=right;verticalAlign=middle;textDirection=vertical-rl;fontSize=32;" vertex="1" parent="1">
          <mxGeometry x="-840" y="110" width="1600" height="390" as="geometry" />
        </mxCell>
        <mxCell id="ka8Jxv8DOYRjdWOTi-CZ-4" value="" style="edgeStyle=orthogonalEdgeStyle;rounded=0;orthogonalLoop=1;jettySize=auto;html=1;" edge="1" parent="1" source="ka8Jxv8DOYRjdWOTi-CZ-5" target="ka8Jxv8DOYRjdWOTi-CZ-7">
          <mxGeometry relative="1" as="geometry" />
        </mxCell>
        <mxCell id="ka8Jxv8DOYRjdWOTi-CZ-5" value="Registrere kandidaten i matchemotor" style="rounded=1;whiteSpace=wrap;html=1;textShadow=1;labelBackgroundColor=none;fillColor=#fff2cc;strokeColor=#000000;gradientColor=#FFFFFF;gradientDirection=east;perimeterSpacing=0;spacing=4;" vertex="1" parent="1">
          <mxGeometry x="-790" y="-260" width="120" height="60" as="geometry" />
        </mxCell>
        <mxCell id="ka8Jxv8DOYRjdWOTi-CZ-6" value="" style="edgeStyle=orthogonalEdgeStyle;rounded=0;orthogonalLoop=1;jettySize=auto;html=1;" edge="1" parent="1" source="ka8Jxv8DOYRjdWOTi-CZ-7" target="ka8Jxv8DOYRjdWOTi-CZ-13">
          <mxGeometry relative="1" as="geometry" />
        </mxCell>
        <mxCell id="ka8Jxv8DOYRjdWOTi-CZ-7" value="Registrere kandidatens matchekriterium" style="rounded=1;whiteSpace=wrap;html=1;textShadow=1;labelBackgroundColor=none;fillColor=#fff2cc;strokeColor=#000000;gradientColor=#FFFFFF;gradientDirection=east;perimeterSpacing=0;spacing=4;" vertex="1" parent="1">
          <mxGeometry x="-710" y="-170" width="120" height="60" as="geometry" />
        </mxCell>
        <mxCell id="ka8Jxv8DOYRjdWOTi-CZ-8" value="" style="edgeStyle=orthogonalEdgeStyle;rounded=0;orthogonalLoop=1;jettySize=auto;html=1;" edge="1" parent="1" source="ka8Jxv8DOYRjdWOTi-CZ-9" target="ka8Jxv8DOYRjdWOTi-CZ-11">
          <mxGeometry relative="1" as="geometry" />
        </mxCell>
        <mxCell id="ka8Jxv8DOYRjdWOTi-CZ-9" value="Registrere stillingen i matchemotor" style="rounded=1;whiteSpace=wrap;html=1;textShadow=1;labelBackgroundColor=none;fillColor=#fff2cc;strokeColor=#000000;gradientColor=#FFFFFF;gradientDirection=east;perimeterSpacing=0;spacing=4;" vertex="1" parent="1">
          <mxGeometry x="-790" y="30" width="120" height="60" as="geometry" />
        </mxCell>
        <mxCell id="ka8Jxv8DOYRjdWOTi-CZ-10" value="" style="edgeStyle=orthogonalEdgeStyle;rounded=0;orthogonalLoop=1;jettySize=auto;html=1;" edge="1" parent="1" source="ka8Jxv8DOYRjdWOTi-CZ-11" target="ka8Jxv8DOYRjdWOTi-CZ-13">
          <mxGeometry relative="1" as="geometry" />
        </mxCell>
        <mxCell id="ka8Jxv8DOYRjdWOTi-CZ-11" value="Registrere stillingens matchekriterium" style="rounded=1;whiteSpace=wrap;html=1;textShadow=1;labelBackgroundColor=none;fillColor=#fff2cc;strokeColor=#000000;gradientColor=#FFFFFF;gradientDirection=east;perimeterSpacing=0;spacing=4;" vertex="1" parent="1">
          <mxGeometry x="-710" y="-60" width="120" height="60" as="geometry" />
        </mxCell>
        <mxCell id="ka8Jxv8DOYRjdWOTi-CZ-12" value="" style="edgeStyle=orthogonalEdgeStyle;rounded=0;orthogonalLoop=1;jettySize=auto;html=1;" edge="1" parent="1" source="ka8Jxv8DOYRjdWOTi-CZ-13" target="ka8Jxv8DOYRjdWOTi-CZ-22">
          <mxGeometry relative="1" as="geometry" />
        </mxCell>
        <mxCell id="ka8Jxv8DOYRjdWOTi-CZ-13" value="Lete etter passende stilling utfra kriteriene" style="rounded=1;whiteSpace=wrap;html=1;textShadow=1;labelBackgroundColor=none;fillColor=#fff2cc;strokeColor=#000000;gradientColor=#FFFFFF;gradientDirection=east;perimeterSpacing=0;spacing=4;" vertex="1" parent="1">
          <mxGeometry x="-540" y="-115" width="120" height="60" as="geometry" />
        </mxCell>
        <mxCell id="ka8Jxv8DOYRjdWOTi-CZ-14" value="" style="edgeStyle=orthogonalEdgeStyle;rounded=0;orthogonalLoop=1;jettySize=auto;html=1;entryX=0.5;entryY=0;entryDx=0;entryDy=0;" edge="1" parent="1" source="ka8Jxv8DOYRjdWOTi-CZ-15" target="ka8Jxv8DOYRjdWOTi-CZ-5">
          <mxGeometry relative="1" as="geometry">
            <mxPoint x="-730" y="-375" as="targetPoint" />
          </mxGeometry>
        </mxCell>
        <mxCell id="ka8Jxv8DOYRjdWOTi-CZ-15" value="Ferdig utprøvd medarbeider skal matches" style="ellipse;html=1;shape=endState;fillColor=#000000;strokeColor=#ff0000;labelPosition=center;verticalLabelPosition=top;align=center;verticalAlign=bottom;whiteSpace=wrap;" vertex="1" parent="1">
          <mxGeometry x="-745" y="-525" width="30" height="30" as="geometry" />
        </mxCell>
        <mxCell id="ka8Jxv8DOYRjdWOTi-CZ-16" value="" style="edgeStyle=orthogonalEdgeStyle;rounded=0;orthogonalLoop=1;jettySize=auto;html=1;" edge="1" parent="1" source="ka8Jxv8DOYRjdWOTi-CZ-17" target="ka8Jxv8DOYRjdWOTi-CZ-9">
          <mxGeometry relative="1" as="geometry" />
        </mxCell>
        <mxCell id="ka8Jxv8DOYRjdWOTi-CZ-17" value="Stillling er publisert" style="ellipse;html=1;shape=endState;fillColor=#000000;strokeColor=#ff0000;labelPosition=center;verticalLabelPosition=bottom;align=center;verticalAlign=top;whiteSpace=wrap;" vertex="1" parent="1">
          <mxGeometry x="-745" y="290" width="30" height="30" as="geometry" />
        </mxCell>
        <mxCell id="ka8Jxv8DOYRjdWOTi-CZ-18" value="" style="edgeStyle=orthogonalEdgeStyle;rounded=0;orthogonalLoop=1;jettySize=auto;html=1;entryX=0.5;entryY=1;entryDx=0;entryDy=0;" edge="1" parent="1" source="ka8Jxv8DOYRjdWOTi-CZ-22" target="ka8Jxv8DOYRjdWOTi-CZ-24">
          <mxGeometry relative="1" as="geometry">
            <mxPoint x="-345" y="-167.5" as="targetPoint" />
          </mxGeometry>
        </mxCell>
        <mxCell id="ka8Jxv8DOYRjdWOTi-CZ-19" value="Ja" style="edgeLabel;html=1;align=center;verticalAlign=middle;resizable=0;points=[];" vertex="1" connectable="0" parent="ka8Jxv8DOYRjdWOTi-CZ-18">
          <mxGeometry x="-0.5395" relative="1" as="geometry">
            <mxPoint y="24" as="offset" />
          </mxGeometry>
        </mxCell>
        <mxCell id="ka8Jxv8DOYRjdWOTi-CZ-20" value="" style="edgeStyle=orthogonalEdgeStyle;rounded=0;orthogonalLoop=1;jettySize=auto;html=1;entryX=0;entryY=0.5;entryDx=0;entryDy=0;" edge="1" parent="1" source="ka8Jxv8DOYRjdWOTi-CZ-22" target="ka8Jxv8DOYRjdWOTi-CZ-53">
          <mxGeometry relative="1" as="geometry">
            <mxPoint x="-235" y="-85.00000000000023" as="targetPoint" />
          </mxGeometry>
        </mxCell>
        <mxCell id="ka8Jxv8DOYRjdWOTi-CZ-21" value="Nei" style="edgeLabel;html=1;align=center;verticalAlign=middle;resizable=0;points=[];" vertex="1" connectable="0" parent="ka8Jxv8DOYRjdWOTi-CZ-20">
          <mxGeometry x="-0.9524" y="1" relative="1" as="geometry">
            <mxPoint as="offset" />
          </mxGeometry>
        </mxCell>
        <mxCell id="ka8Jxv8DOYRjdWOTi-CZ-22" value="Passende stilling funnet?" style="rhombus;whiteSpace=wrap;html=1;labelPosition=center;verticalLabelPosition=bottom;align=center;verticalAlign=top;gradientColor=#FFFFFF;gradientDirection=east;fillColor=#FFF2CC;" vertex="1" parent="1">
          <mxGeometry x="-360" y="-101.25" width="30" height="32.5" as="geometry" />
        </mxCell>
        <mxCell id="ka8Jxv8DOYRjdWOTi-CZ-23" value="" style="edgeStyle=orthogonalEdgeStyle;rounded=0;orthogonalLoop=1;jettySize=auto;html=1;" edge="1" parent="1" source="ka8Jxv8DOYRjdWOTi-CZ-24" target="ka8Jxv8DOYRjdWOTi-CZ-26">
          <mxGeometry relative="1" as="geometry" />
        </mxCell>
        <mxCell id="ka8Jxv8DOYRjdWOTi-CZ-24" value="Presentere resultatet" style="rounded=1;whiteSpace=wrap;html=1;textShadow=1;labelBackgroundColor=none;fillColor=#fff2cc;strokeColor=#000000;gradientColor=#FFFFFF;gradientDirection=east;perimeterSpacing=0;spacing=4;" vertex="1" parent="1">
          <mxGeometry x="-405" y="-390" width="120" height="60" as="geometry" />
        </mxCell>
        <mxCell id="ka8Jxv8DOYRjdWOTi-CZ-25" value="" style="edgeStyle=orthogonalEdgeStyle;rounded=0;orthogonalLoop=1;jettySize=auto;html=1;" edge="1" parent="1" source="ka8Jxv8DOYRjdWOTi-CZ-26" target="ka8Jxv8DOYRjdWOTi-CZ-31">
          <mxGeometry relative="1" as="geometry" />
        </mxCell>
        <mxCell id="ka8Jxv8DOYRjdWOTi-CZ-26" value="Vurdere forslaget fra matchemotor" style="rounded=1;whiteSpace=wrap;html=1;textShadow=1;labelBackgroundColor=none;fillColor=#fff2cc;strokeColor=#000000;gradientColor=#FFFFFF;gradientDirection=east;perimeterSpacing=0;spacing=4;" vertex="1" parent="1">
          <mxGeometry x="-405" y="-540" width="120" height="60" as="geometry" />
        </mxCell>
        <mxCell id="ka8Jxv8DOYRjdWOTi-CZ-27" value="" style="edgeStyle=orthogonalEdgeStyle;rounded=0;orthogonalLoop=1;jettySize=auto;html=1;entryX=0;entryY=0.5;entryDx=0;entryDy=0;" edge="1" parent="1" source="ka8Jxv8DOYRjdWOTi-CZ-31" target="ka8Jxv8DOYRjdWOTi-CZ-35">
          <mxGeometry relative="1" as="geometry">
            <mxPoint x="-185" y="-606.25" as="targetPoint" />
            <Array as="points">
              <mxPoint x="-185" y="-600" />
            </Array>
          </mxGeometry>
        </mxCell>
        <mxCell id="ka8Jxv8DOYRjdWOTi-CZ-28" value="Nei" style="edgeLabel;html=1;align=center;verticalAlign=middle;resizable=0;points=[];" vertex="1" connectable="0" parent="ka8Jxv8DOYRjdWOTi-CZ-27">
          <mxGeometry x="-0.2702" y="-1" relative="1" as="geometry">
            <mxPoint x="-1" y="24" as="offset" />
          </mxGeometry>
        </mxCell>
        <mxCell id="ka8Jxv8DOYRjdWOTi-CZ-29" value="" style="edgeStyle=orthogonalEdgeStyle;rounded=0;orthogonalLoop=1;jettySize=auto;html=1;entryX=0.008;entryY=0.614;entryDx=0;entryDy=0;entryPerimeter=0;" edge="1" parent="1" source="ka8Jxv8DOYRjdWOTi-CZ-31" target="ka8Jxv8DOYRjdWOTi-CZ-33">
          <mxGeometry relative="1" as="geometry">
            <mxPoint x="-185" y="-397.5" as="targetPoint" />
            <Array as="points">
              <mxPoint x="-185" y="-413" />
            </Array>
          </mxGeometry>
        </mxCell>
        <mxCell id="ka8Jxv8DOYRjdWOTi-CZ-30" value="Ja" style="edgeLabel;html=1;align=center;verticalAlign=middle;resizable=0;points=[];" vertex="1" connectable="0" parent="ka8Jxv8DOYRjdWOTi-CZ-29">
          <mxGeometry x="-0.5911" relative="1" as="geometry">
            <mxPoint y="-1" as="offset" />
          </mxGeometry>
        </mxCell>
        <mxCell id="ka8Jxv8DOYRjdWOTi-CZ-31" value="Er stillingen aktuell?" style="rhombus;whiteSpace=wrap;html=1;labelPosition=right;verticalLabelPosition=middle;align=left;verticalAlign=middle;gradientColor=#FFFFFF;gradientDirection=east;fillColor=#FFF2CC;" vertex="1" parent="1">
          <mxGeometry x="-200" y="-526.25" width="30" height="32.5" as="geometry" />
        </mxCell>
        <mxCell id="ka8Jxv8DOYRjdWOTi-CZ-32" value="" style="edgeStyle=orthogonalEdgeStyle;rounded=0;orthogonalLoop=1;jettySize=auto;html=1;entryX=0.5;entryY=0;entryDx=0;entryDy=0;" edge="1" parent="1" source="ka8Jxv8DOYRjdWOTi-CZ-33" target="ka8Jxv8DOYRjdWOTi-CZ-37">
          <mxGeometry relative="1" as="geometry" />
        </mxCell>
        <mxCell id="ka8Jxv8DOYRjdWOTi-CZ-33" value="Varsle leder med bemanningsbehov" style="rounded=1;whiteSpace=wrap;html=1;textShadow=1;labelBackgroundColor=none;fillColor=#fff2cc;strokeColor=#000000;gradientColor=#FFFFFF;gradientDirection=east;perimeterSpacing=0;spacing=4;" vertex="1" parent="1">
          <mxGeometry x="-130" y="-450" width="120" height="60" as="geometry" />
        </mxCell>
        <mxCell id="ka8Jxv8DOYRjdWOTi-CZ-34" value="" style="edgeStyle=orthogonalEdgeStyle;rounded=0;orthogonalLoop=1;jettySize=auto;html=1;entryX=0.5;entryY=0;entryDx=0;entryDy=0;" edge="1" parent="1" source="ka8Jxv8DOYRjdWOTi-CZ-35" target="ka8Jxv8DOYRjdWOTi-CZ-53">
          <mxGeometry relative="1" as="geometry">
            <mxPoint x="130" y="-600" as="targetPoint" />
          </mxGeometry>
        </mxCell>
        <mxCell id="ka8Jxv8DOYRjdWOTi-CZ-35" value="Skrive begrunnelse" style="rounded=1;whiteSpace=wrap;html=1;textShadow=1;labelBackgroundColor=none;fillColor=#fff2cc;strokeColor=#000000;gradientColor=#FFFFFF;gradientDirection=east;perimeterSpacing=0;spacing=4;" vertex="1" parent="1">
          <mxGeometry x="-130" y="-630" width="120" height="60" as="geometry" />
        </mxCell>
        <mxCell id="ka8Jxv8DOYRjdWOTi-CZ-36" value="" style="edgeStyle=orthogonalEdgeStyle;rounded=0;orthogonalLoop=1;jettySize=auto;html=1;entryX=0;entryY=0.5;entryDx=0;entryDy=0;" edge="1" parent="1" source="ka8Jxv8DOYRjdWOTi-CZ-37" target="ka8Jxv8DOYRjdWOTi-CZ-39">
          <mxGeometry relative="1" as="geometry">
            <mxPoint x="70" y="305" as="targetPoint" />
          </mxGeometry>
        </mxCell>
        <mxCell id="ka8Jxv8DOYRjdWOTi-CZ-37" value="Presentere matchkandidat" style="rounded=1;whiteSpace=wrap;html=1;textShadow=1;labelBackgroundColor=none;fillColor=#fff2cc;strokeColor=#000000;gradientColor=#FFFFFF;gradientDirection=east;perimeterSpacing=0;spacing=4;" vertex="1" parent="1">
          <mxGeometry x="-130" y="275" width="120" height="60" as="geometry" />
        </mxCell>
        <mxCell id="ka8Jxv8DOYRjdWOTi-CZ-39" value="Vurdere matchen etter samtale med kandidaten" style="rounded=1;whiteSpace=wrap;html=1;textShadow=1;labelBackgroundColor=none;fillColor=#fff2cc;strokeColor=#000000;gradientColor=#FFFFFF;gradientDirection=east;perimeterSpacing=0;spacing=4;" vertex="1" parent="1">
          <mxGeometry x="80" y="275" width="120" height="60" as="geometry" />
        </mxCell>
        <mxCell id="ka8Jxv8DOYRjdWOTi-CZ-47" value="" style="edgeStyle=orthogonalEdgeStyle;rounded=0;orthogonalLoop=1;jettySize=auto;html=1;entryX=0;entryY=0.5;entryDx=0;entryDy=0;exitX=1;exitY=0.5;exitDx=0;exitDy=0;" edge="1" parent="1" source="ka8Jxv8DOYRjdWOTi-CZ-39" target="ka8Jxv8DOYRjdWOTi-CZ-50">
          <mxGeometry relative="1" as="geometry">
            <mxPoint x="635" y="305" as="targetPoint" />
            <mxPoint x="495" y="305" as="sourcePoint" />
          </mxGeometry>
        </mxCell>
        <mxCell id="ka8Jxv8DOYRjdWOTi-CZ-49" value="" style="edgeStyle=orthogonalEdgeStyle;rounded=0;orthogonalLoop=1;jettySize=auto;html=1;entryX=0.5;entryY=1;entryDx=0;entryDy=0;" edge="1" parent="1" source="ka8Jxv8DOYRjdWOTi-CZ-50" target="ka8Jxv8DOYRjdWOTi-CZ-52">
          <mxGeometry relative="1" as="geometry">
            <mxPoint x="710" y="205" as="targetPoint" />
          </mxGeometry>
        </mxCell>
        <mxCell id="ka8Jxv8DOYRjdWOTi-CZ-50" value="Orientere medarbeiderens leder" style="rounded=1;whiteSpace=wrap;html=1;textShadow=1;labelBackgroundColor=none;fillColor=#fff2cc;strokeColor=#000000;gradientColor=#FFFFFF;gradientDirection=east;perimeterSpacing=0;spacing=4;" vertex="1" parent="1">
          <mxGeometry x="290" y="275" width="120" height="60" as="geometry" />
        </mxCell>
        <mxCell id="ka8Jxv8DOYRjdWOTi-CZ-51" value="" style="edgeStyle=orthogonalEdgeStyle;rounded=0;orthogonalLoop=1;jettySize=auto;html=1;entryX=0.5;entryY=0;entryDx=0;entryDy=0;" edge="1" parent="1" source="ka8Jxv8DOYRjdWOTi-CZ-52" target="ka8Jxv8DOYRjdWOTi-CZ-53">
          <mxGeometry relative="1" as="geometry">
            <mxPoint x="910" y="-373.75" as="targetPoint" />
          </mxGeometry>
        </mxCell>
        <mxCell id="ka8Jxv8DOYRjdWOTi-CZ-52" value="Orientere medarbeideren om vurderingen" style="rounded=1;whiteSpace=wrap;html=1;textShadow=1;labelBackgroundColor=none;fillColor=#fff2cc;strokeColor=#000000;gradientColor=#FFFFFF;gradientDirection=east;perimeterSpacing=0;spacing=4;" vertex="1" parent="1">
          <mxGeometry x="290" y="-403.75" width="120" height="60" as="geometry" />
        </mxCell>
        <mxCell id="ka8Jxv8DOYRjdWOTi-CZ-53" value="" style="ellipse;html=1;shape=endState;fillColor=#000000;strokeColor=#ff0000;labelPosition=center;verticalLabelPosition=top;align=center;verticalAlign=bottom;whiteSpace=wrap;" vertex="1" parent="1">
          <mxGeometry x="620" y="-100" width="30" height="30" as="geometry" />
        </mxCell>
        <mxCell id="ka8Jxv8DOYRjdWOTi-CZ-54" value="" style="shape=image;html=1;verticalLabelPosition=bottom;verticalAlign=top;imageAspect=1;aspect=fixed;image=img/clipart/Gear_128x128.png" vertex="1" parent="1">
          <mxGeometry x="-540" y="-122.25" width="17.9" height="21" as="geometry" />
        </mxCell>
        <mxCell id="ka8Jxv8DOYRjdWOTi-CZ-55" value="" style="shape=image;html=1;verticalLabelPosition=bottom;verticalAlign=top;imageAspect=1;aspect=fixed;image=img/clipart/Gear_128x128.png" vertex="1" parent="1">
          <mxGeometry x="-405" y="-400" width="17.9" height="21" as="geometry" />
        </mxCell>
        <mxCell id="ka8Jxv8DOYRjdWOTi-CZ-56" value="&lt;font style=&quot;font-size: 40px;&quot;&gt;Matcheprosess&lt;/font&gt;" style="text;html=1;align=center;verticalAlign=middle;whiteSpace=wrap;rounded=0;" vertex="1" parent="1">
          <mxGeometry x="-10" y="-750" width="340" height="100" as="geometry" />
        </mxCell>
      </root>
    </mxGraphModel>
  </diagram>
</mxfile>
